<svg xmlns="http://www.w3.org/2000/svg" viewBox="0 0 324.7 49.9"><style>.st0{fill:none;stroke:#05446B;stroke-width:7.002;} .st1{fill:none;stroke:#6AAADC;stroke-width:3.502;} .st2{fill:none;stroke:#FFFFFF;stroke-width:0.875;}</style><path d="M154.9 30.2l1.6 4.5h-3.2l1.6-4.5zm-5 8.7h1.9l1-2.8h4.2l1 2.8h2l-4.1-10.5h-2l-4 10.5zm16.8-3.8c0 1.3-.6 2.7-2.1 2.7-1.4 0-2.1-1.1-2.1-2.7s.7-2.7 2.1-2.7c1.3 0 2.1 1.3 2.1 2.7m-5.9 6.6h1.7v-3.8c.5.8 1.6 1.2 2.5 1.2 2.3 0 3.3-1.9 3.3-4 0-2.2-1.2-4.1-3.6-4.1-1 0-1.9.4-2.4 1.2v-1h-1.6v10.5zm14.9-6.6c0 1.3-.6 2.7-2.1 2.7-1.4 0-2.1-1.1-2.1-2.7s.7-2.7 2.1-2.7c1.3 0 2.1 1.3 2.1 2.7m-5.9 6.6h1.7v-3.8c.5.8 1.6 1.2 2.5 1.2 2.3 0 3.3-1.9 3.3-4 0-2.2-1.2-4.1-3.6-4.1-1 0-1.9.4-2.4 1.2v-1h-1.6v10.5zm9-2.8h1.7V28.4h-1.7v10.5zm3.6 0h1.7v-7.6h-1.7v7.6zm0-8.9h1.7v-1.6h-1.7V30zm10.3 3.8c-.2-1.9-1.7-2.8-3.4-2.8-2.5 0-3.8 1.8-3.8 4.1 0 2.2 1.3 3.9 3.7 3.9 2 0 3.2-1.1 3.5-3.1H191c-.2 1.1-.8 1.7-1.8 1.7-1.5 0-2-1.3-2-2.6 0-2.3 1.2-2.8 2.1-2.8.9 0 1.6.5 1.7 1.4h1.7zm6.1 2.5c0 1.1-1.1 1.4-1.9 1.4-.6 0-1.5-.2-1.5-1 0-.9.6-1.1 1.4-1.3.7-.1 1.5-.1 2.1-.5v1.4zm1.6-3c0-1.6-1.6-2.2-3-2.2-1.7 0-3.3.6-3.5 2.5h1.7c.1-.8.7-1.2 1.7-1.2.7 0 1.6.2 1.6 1 0 1-1.1.9-2.3 1.1-1.4.2-2.9.5-2.9 2.4 0 1.5 1.2 2.2 2.6 2.2.9 0 2-.3 2.6-.9.1.7.6.9 1.3.9.3 0 .8-.1 1.1-.2v-1.2h-.4c-.3 0-.4-.2-.4-.6v-3.8zm1.1-.8h1.3V37c0 1.3.4 1.9 2.1 1.9.4 0 .7-.1 1.1-.1v-1.3c-.2.1-.5.1-.7.1-.8 0-.8-.4-.8-1v-4.1h1.5v-1.3h-1.5V29h-1.7v2.3h-1.3v1.2zm5.7 6.4h1.7v-7.6h-1.7v7.6zm0-8.9h1.7v-1.6h-1.7V30zm7 7.8c-1.5 0-2.2-1.4-2.2-2.7 0-1.3.7-2.7 2.2-2.7 1.5 0 2.2 1.4 2.2 2.7 0 1.3-.7 2.7-2.2 2.7m0 1.3c2.4 0 3.8-1.7 3.8-4s-1.4-4-3.8-4-3.8 1.7-3.8 4 1.4 4 3.8 4m5.3-.2h1.7v-4.5c0-1.1.7-2 1.8-2 1 0 1.5.5 1.5 1.7v4.8h1.7v-5.2c0-1.7-1-2.6-2.7-2.6-1 0-1.9.5-2.4 1.4v-1.1h-1.6v7.5zm16-1.1c-1.5 0-2.2-1.4-2.2-2.7 0-1.3.7-2.7 2.2-2.7 1.5 0 2.2 1.4 2.2 2.7 0 1.3-.7 2.7-2.2 2.7m0 1.3c2.4 0 3.8-1.7 3.8-4s-1.4-4-3.8-4-3.8 1.7-3.8 4 1.4 4 3.8 4m4.5-6.6h1.3v6.4h1.7v-6.4h1.4v-1.3H243v-.8c0-.6.4-.8.8-.8.3 0 .6 0 .8.1v-1.3c-.3-.1-.6-.1-1.2-.1-1.1 0-2.1.3-2.1 2.3v.6H240v1.3zm11.6-2.6h3c1 0 1.8.3 1.8 1.6 0 1.1-.6 1.7-1.8 1.7h-3v-3.3zm-1.9 9h1.8v-4.3h2.7c1.7 0 2.1.9 2.1 2.8 0 .5 0 1.1.3 1.5h2c-.4-.4-.6-1.5-.6-2.8 0-1.7-.9-2.1-1.6-2.2.3-.1 1.7-.6 1.7-2.7 0-1.8-1.2-2.8-3.5-2.8h-5v10.5zm17.1-3.4c.3-2.3-1.2-4.4-3.6-4.4-2.3 0-3.7 1.9-3.7 4 0 2.3 1.3 4 3.7 4 1.7 0 3.1-.9 3.4-2.6H265c-.3.8-.9 1.3-1.9 1.3-1.4 0-2-1.1-2-2.3h5.7zm-5.6-1.1c0-1.1.8-2 2-2 1.1 0 1.9 1 1.9 2h-3.9zm6.4 2.1c0 1.8 1.5 2.7 3.4 2.7 1.6 0 3.4-.7 3.4-2.5 0-1.5-1.2-1.9-2.5-2.2-1.2-.3-2.5-.4-2.5-1.2 0-.7.9-.8 1.4-.8.7 0 1.4.2 1.5 1h1.8c-.2-1.7-1.6-2.3-3.2-2.3-1.4 0-3.2.5-3.2 2.2 0 1.5 1.2 2 2.4 2.3 1.2.3 2.4.4 2.5 1.3 0 .9-1.1 1-1.7 1-.9 0-1.6-.4-1.7-1.3h-1.6zm15-1c.3-2.3-1.2-4.4-3.6-4.4-2.3 0-3.7 1.9-3.7 4 0 2.3 1.3 4 3.7 4 1.7 0 3.1-.9 3.4-2.6h-1.6c-.3.8-.9 1.3-1.9 1.3-1.4 0-2-1.1-2-2.3h5.7zm-5.6-1.1c0-1.1.8-2 2-2 1.1 0 1.9 1 1.9 2H277zm11.6 1.9c0 1.1-1.1 1.4-1.9 1.4-.6 0-1.5-.2-1.5-1 0-.9.6-1.1 1.4-1.3.7-.1 1.5-.1 2.1-.5v1.4zm1.7-3c0-1.6-1.6-2.2-3.1-2.2-1.7 0-3.3.6-3.5 2.5h1.7c.1-.8.7-1.2 1.7-1.2.7 0 1.6.2 1.6 1 0 1-1.1.9-2.3 1.1-1.4.2-2.9.5-2.9 2.4 0 1.5 1.2 2.2 2.6 2.2.9 0 2-.3 2.6-.9.1.7.6.9 1.3.9.3 0 .8-.1 1.1-.2v-1.2h-.4c-.3 0-.4-.2-.4-.6v-3.8zm1.8 5.6h1.7v-3.6c0-1.7.9-2.6 2.1-2.6.2 0 .5 0 .7.1v-1.6h-.6c-1 0-2 .9-2.2 1.7v-1.5h-1.6v7.5zm11.7-5.1c-.2-1.9-1.7-2.8-3.4-2.8-2.5 0-3.8 1.8-3.8 4.1 0 2.2 1.3 3.9 3.7 3.9 2 0 3.2-1.1 3.5-3.1h-1.7c-.2 1.1-.8 1.7-1.8 1.7-1.5 0-2-1.3-2-2.6 0-2.3 1.2-2.8 2.1-2.8.9 0 1.6.5 1.7 1.4h1.7zm1.4 5.1h1.7v-4.5c0-1.1.7-2 1.8-2 1 0 1.5.5 1.5 1.7v4.8h1.7v-5.2c0-1.7-1-2.6-2.7-2.6-1 0-1.9.5-2.3 1.2v-3.9h-1.7v10.5zM160.1 15.5c-.2-2.3-2.1-3.6-4.5-3.6-3.2 0-5 2.5-5 5.5s1.9 5.5 5 5.5c2.5 0 4.3-1.7 4.5-4.3h-1.8c-.1 1.5-1 2.8-2.7 2.8-2.3 0-3.2-2-3.2-4s.9-4 3.2-4c1.5 0 2.3.9 2.6 2.1h1.9zm6 4.6c0 1.1-1.1 1.4-1.9 1.4-.6 0-1.5-.2-1.5-1 0-.9.6-1.1 1.4-1.3.7-.1 1.5-.1 2.1-.5v1.4zm1.7-3c0-1.6-1.6-2.2-3.1-2.2-1.7 0-3.3.6-3.5 2.5h1.7c.1-.8.7-1.2 1.7-1.2.7 0 1.6.2 1.6 1 0 1-1.1.9-2.3 1.1-1.4.2-2.9.5-2.9 2.4 0 1.5 1.2 2.2 2.6 2.2.9 0 2-.3 2.6-.9.1.7.6.9 1.3.9.3 0 .8-.1 1.1-.2v-1.2h-.4c-.3 0-.4-.2-.4-.6v-3.8zm1.7 5.6h1.7v-4.5c0-1.3.8-2 1.7-2 1 0 1.3.6 1.3 1.6v4.9h1.7v-4.5c0-1.3.5-2 1.6-2 1.3 0 1.4.8 1.4 2v4.5h1.7v-5.3c0-1.9-.9-2.6-2.5-2.6-1.1 0-1.8.5-2.4 1.3-.3-.9-1.2-1.3-2.1-1.3-1.2 0-1.8.5-2.3 1.3V15h-1.6v7.7zm18.5-3.8c0 1.3-.6 2.7-2.1 2.7-1.4 0-2.1-1.1-2.1-2.7s.7-2.7 2.1-2.7c1.4 0 2.1 1.3 2.1 2.7m-5.8 3.8h1.6v-1c.5 1 1.6 1.3 2.6 1.3 2.3 0 3.3-1.9 3.3-4 0-2.2-1.2-4.1-3.6-4.1-.9 0-1.8.5-2.3 1.2v-3.9h-1.7v10.5zm8.8 0h1.7v-3.6c0-1.7.9-2.6 2.1-2.6.2 0 .5 0 .7.1V15h-.6c-1 0-2 .9-2.2 1.7v-1.5H191v7.5zm5.1 0h1.7v-7.6h-1.7v7.6zm0-8.9h1.7v-1.6h-1.7v1.6zm4.6 5.2c0-1.4.6-2.8 2.1-2.8 1.3 0 2.1 1 2.1 2.7 0 1.3-.6 2.7-2.1 2.7-1.4 0-2.1-1.3-2.1-2.6m5.9-6.8h-1.7v3.9c-.5-.8-1.6-1.2-2.5-1.2-1.7 0-3.3 1.2-3.3 4 0 2.3 1.2 4.1 3.6 4.1 1 0 1.9-.4 2.4-1.2v1h1.6V12.2zm5 9.2c-1.4 0-2-1.3-2-2.5 0-1.3.5-2.7 2-2.7s2 1.2 2 2.5c.1 1.3-.5 2.7-2 2.7m3.7-6.3h-1.7v1c-.4-.9-1.3-1.3-2.3-1.3-2.2 0-3.4 1.8-3.4 3.8 0 2.2 1 4 3.4 4 .9 0 1.8-.5 2.3-1.3v1.2c0 1.3-.6 1.9-2 1.9-.9 0-1.6-.2-1.8-1.1h-1.7c.1 1.8 1.9 2.4 3.4 2.4 2.4 0 3.7-1.1 3.7-3.4v-7.2zm8.5 4.2c.3-2.3-1.2-4.5-3.6-4.5-2.3 0-3.7 1.9-3.7 4 0 2.3 1.3 4 3.7 4 1.7 0 3.1-.9 3.4-2.6H222c-.3.8-.9 1.3-1.9 1.3-1.4 0-2-1.1-2-2.3h5.7zm-5.6-1.1c0-1.1.8-2 2-2 1.1 0 1.9 1 1.9 2h-3.9zm10.3 1c0 2.6 2 3.8 4.4 3.8 2.1 0 4.2-.9 4.2-3.3 0-1.1-.7-2.3-2-2.7-.5-.2-2.9-.8-3-.8-.8-.2-1.3-.6-1.3-1.4 0-1.1 1.1-1.4 1.9-1.4 1.3 0 2.2.5 2.3 1.9h1.8c0-2.2-1.8-3.4-4-3.4-1.9 0-3.8 1-3.8 3.1 0 1.1.5 2.2 2.3 2.7 1.4.4 2.4.6 3.1.9.4.2.9.5.9 1.3s-.6 1.6-2.2 1.6c-1.5 0-2.7-.6-2.7-2.3h-1.9zm13.3 2.4c-1.5 0-2.2-1.4-2.2-2.7 0-1.3.7-2.7 2.2-2.7s2.2 1.4 2.2 2.7c-.1 1.3-.7 2.7-2.2 2.7m0 1.3c2.4 0 3.8-1.7 3.8-4s-1.4-4-3.8-4-3.8 1.7-3.8 4c-.1 2.3 1.3 4 3.8 4m11.9-5.3c-.2-1.9-1.7-2.8-3.4-2.8-2.5 0-3.8 1.8-3.8 4.1 0 2.2 1.3 3.9 3.7 3.9 2 0 3.2-1.1 3.5-3.1H252c-.2 1.1-.8 1.7-1.8 1.7-1.5 0-2-1.3-2-2.6 0-2.3 1.2-2.8 2.1-2.8.9 0 1.6.5 1.7 1.4h1.7zm1.3 5.1h1.7v-7.6H255v7.6zm0-8.9h1.7v-1.6H255v1.6zm10.2 5.5c.3-2.3-1.2-4.5-3.6-4.5-2.3 0-3.7 1.9-3.7 4 0 2.3 1.3 4 3.7 4 1.7 0 3.1-.9 3.4-2.6h-1.6c-.3.8-.9 1.3-1.9 1.3-1.4 0-2-1.1-2-2.3h5.7zm-5.6-1.1c0-1.1.8-2 2-2 1.1 0 1.9 1 1.9 2h-3.9zm6-1.9h1.3v4.5c0 1.3.4 1.9 2.1 1.9.4 0 .7-.1 1.1-.1v-1.3c-.2.1-.5.1-.7.1-.8 0-.8-.4-.8-1v-4.1h1.5V15h-1.5v-2.3h-1.7V15h-1.3v1.3zm7.6 6.4l-.2.6c-.2.6-.4 1.1-1.2 1.1-.3 0-.5-.1-.8-.1v1.4c.4.1.8.1 1.2.1 1.8 0 2.2-1.2 2.7-2.6l3-8h-1.8l-1.9 5.7-2-5.7h-1.8l2.8 7.5zm8.6-6.4h1.3v6.4h1.7v-6.4h1.4V15h-1.4v-.8c0-.6.4-.8.8-.8.3 0 .6 0 .8.1v-1.3c-.3-.1-.6-.1-1.2-.1-1.1 0-2.1.3-2.1 2.3v.6h-1.3v1.3zm8.8 5.3c-1.5 0-2.2-1.4-2.2-2.7 0-1.3.7-2.7 2.2-2.7 1.5 0 2.2 1.4 2.2 2.7-.1 1.3-.7 2.7-2.2 2.7m0 1.3c2.4 0 3.8-1.7 3.8-4s-1.4-4-3.8-4-3.8 1.7-3.8 4c-.1 2.3 1.3 4 3.8 4m5.1-.2h1.7v-3.6c0-1.7.9-2.6 2.1-2.6.2 0 .5 0 .7.1V15h-.6c-1 0-2 .9-2.2 1.7v-1.5h-1.6v7.5zm8.2-6.4h1.3v4.5c0 1.3.4 1.9 2.1 1.9.4 0 .7-.1 1.1-.1v-1.3c-.2.1-.5.1-.7.1-.8 0-.8-.4-.8-1v-4.1h1.5V15h-1.5v-2.3h-1.7V15h-1.3v1.3zm5.5 6.4h1.7v-4.5c0-1.1.7-2 1.8-2 1 0 1.5.5 1.5 1.7v4.8h1.7v-5.2c0-1.7-1-2.6-2.7-2.6-1 0-1.9.5-2.3 1.2v-3.9h-1.7v10.5zm15.2-3.4c.3-2.3-1.2-4.5-3.6-4.5-2.3 0-3.7 1.9-3.7 4 0 2.3 1.3 4 3.7 4 1.7 0 3.1-.9 3.4-2.6h-1.6c-.3.8-.9 1.3-1.9 1.3-1.4 0-2-1.1-2-2.3h5.7zm-5.6-1.1c0-1.1.8-2 2-2 1.1 0 1.9 1 1.9 2H319z"/><path class="st0" d="M3.5 3.5h129.8v42.9H3.5z"/><path class="st1" d="M6.1 6.1h124.6v37.8H6.1z"/><path class="st2" d="M4.3 4.3h128.1v41.3H4.3z"/><path d="M34.6 21.7c-.4-4-3.7-6.4-8-6.4-5.6 0-9 4.5-9 9.8 0 5.4 3.4 9.8 9 9.8 4.5 0 7.7-3.1 8-7.6h-3.2c-.3 2.7-1.9 4.9-4.8 4.9-4 0-5.7-3.5-5.7-7.1 0-3.6 1.7-7.1 5.7-7.1 2.7 0 4.1 1.6 4.7 3.7h3.3zM47 28.3c.1 4.6 3.5 6.7 7.8 6.7 3.7 0 7.5-1.7 7.5-5.9 0-1.9-1.2-4-3.6-4.8-1-.3-5.1-1.4-5.4-1.4-1.3-.4-2.2-1.1-2.2-2.4 0-1.9 1.9-2.4 3.4-2.4 2.3 0 3.9.9 4 3.3h3.3c0-3.9-3.3-6-7.2-6-3.4 0-6.9 1.8-6.9 5.5 0 1.9.9 3.9 4.1 4.8 2.6.7 4.3 1.1 5.6 1.5.8.3 1.5.9 1.5 2.3s-1.1 2.8-4 2.8c-2.6 0-4.8-1.1-4.8-4H47zM82.3 19l2.9 8.1h-5.7l2.8-8.1zm-8.9 15.5h3.4l1.8-5h7.5l1.8 5h3.5l-7.2-18.7h-3.5l-7.3 18.7zm33.5-16h5.3c1.7 0 3.3.5 3.3 2.9 0 2-1.1 3-3.2 3h-5.4v-5.9zm-3.3 16h3.3v-7.7h4.8c3 0 3.7 1.5 3.7 5 0 .9 0 1.9.5 2.8h3.5c-.7-.8-1-2.8-1-4.9 0-3-1.7-3.8-2.8-4v-.1c.6-.2 3.1-1.1 3.1-4.7 0-3.2-2.1-5.1-6.2-5.1h-9v18.7z"/></svg>